{
  "source": "C:\\Users\\Peter\\Desktop\\stuff\\MIUN\\quantitative_research\\video_compression\\videos\\BVI-HD\\BVI-HD_CDVL_videos\\ORIG\\RockWave_1920x1080_30fps.mp4",
  "output": "C:\\Users\\Peter\\Desktop\\stuff\\MIUN\\quantitative_research\\video_compression\\compressed_videos\\BVI-HD\\hevc\\4\\RockWave_1920x1080_30fps_hevc.mp4",
  "codec": "hevc",
  "ok": "Input #0, mov,mp4,m4a,3gp,3g2,mj2, from 'C:\\Users\\Peter\\Desktop\\stuff\\MIUN\\quantitative_research\\video_compression\\videos\\BVI-HD\\BVI-HD_CDVL_videos\\ORIG\\RockWave_1920x1080_30fps.mp4':\n  Metadata:\n    major_brand     : isom\n    minor_version   : 512\n    compatible_brands: isomiso2avc1mp41\n    encoder         : Lavf54.28.101\n  Duration: 00:00:05.00, start: 0.000000, bitrate: 303557 kb/s\n  Stream #0:0[0x1](und): Video: h264 (High 4:4:4 Predictive) (avc1 / 0x31637661), yuv420p(progressive), 1920x1080, 303553 kb/s, 30 fps, 30 tbr, 30 tbn (default)\n    Metadata:\n      handler_name    : VideoHandler\n      vendor_id       : [0][0][0][0]\n[out#0/mp4 @ 000002368e41ab00] Codec AVOption b:a (set bitrate (in bits/s)) has not been used for any stream. The most likely reason is either wrong type (e.g. a video option with no video streams) or that it is a private option of some decoder which was not actually used for any stream.\nStream mapping:\n  Stream #0:0 -> #0:0 (h264 (native) -> hevc (libx265))\nPress [q] to stop, [?] for help\n[libx265 @ 000002368ef70bc0] Unknown option: \"aq-mode.\nx265 [info]: HEVC encoder version 4.1+190-8f11c33ac\nx265 [info]: build info [Windows][GCC 15.1.0][64 bit] 10bit\nx265 [info]: using cpu capabilities: MMX2 SSE2Fast LZCNT SSSE3 SSE4.2 AVX FMA3 BMI2 AVX2\nx265 [info]: Main 10 profile, Level-4 (Main tier)\nx265 [info]: Thread pool created using 12 threads\nx265 [info]: Slices                              : 1\nx265 [info]: frame threads / pool features       : 3 / wpp(17 rows)\nx265 [info]: Coding QT: max CU size, min CU size : 64 / 8\nx265 [info]: Residual QT: max TU size, max depth : 32 / 1 inter / 1 intra\nx265 [info]: ME / range / subpel / merge         : star / 57 / 3 / 3\nx265 [info]: Keyframe min / max / scenecut / bias  : 25 / 250 / 40 / 5.00 \nx265 [info]: Lookahead / bframes / badapt        : 25 / 4 / 2\nx265 [info]: b-pyramid / weightp / weightb       : 1 / 1 / 0\nx265 [info]: References / ref-limit  cu / depth  : 4 / on / on\nx265 [info]: AQ: mode / str / qg-size / cu-tree  : 2 / 1.0 / 32 / 1\nx265 [info]: Rate Control / qCompress            : ABR-4000 kbps / 0.60\nx265 [info]: VBV/HRD buffer / max-rate / init    : 4000 / 4000 / 0.750\nx265 [info]: tools: rect limit-modes rd=4 psy-rd=2.00 rdoq=2 psy-rdoq=1.00\nx265 [info]: tools: rskip mode=1 signhide tmvp strong-intra-smoothing lslices=4\nx265 [info]: tools: deblock sao dhdr10-info\nOutput #0, mp4, to 'C:\\Users\\Peter\\Desktop\\stuff\\MIUN\\quantitative_research\\video_compression\\compressed_videos\\BVI-HD\\hevc\\4\\RockWave_1920x1080_30fps_hevc.mp4':\n  Metadata:\n    major_brand     : isom\n    minor_version   : 512\n    compatible_brands: isomiso2avc1mp41\n    encoder         : Lavf62.3.100\n  Stream #0:0(und): Video: hevc (hev1 / 0x31766568), yuv420p10le(tv, progressive), 1920x1080, q=2-31, 4000 kb/s, 30 fps, 15360 tbn (default)\n    Metadata:\n      encoder         : Lavc62.11.100 libx265\n      handler_name    : VideoHandler\n      vendor_id       : [0][0][0][0]\n    Side data:\n      cpb: bitrate max/min/avg: 4000000/0/4000000 buffer size: 4000000 vbv_delay: N/A\nframe=    0 fps=0.0 q=0.0 size=       0KiB time=N/A bitrate=N/A speed=N/A elapsed=0:00:01.96    \nframe=    0 fps=0.0 q=0.0 size=       0KiB time=N/A bitrate=N/A speed=N/A elapsed=0:00:02.53    \nframe=    0 fps=0.0 q=0.0 size=       0KiB time=N/A bitrate=N/A speed=N/A elapsed=0:00:03.23    \nframe=    0 fps=0.0 q=0.0 size=       0KiB time=N/A bitrate=N/A speed=N/A elapsed=0:00:03.92    \nframe=    0 fps=0.0 q=0.0 size=       0KiB time=N/A bitrate=N/A speed=N/A elapsed=0:00:04.54    \nframe=    0 fps=0.0 q=0.0 size=       0KiB time=N/A bitrate=N/A speed=N/A elapsed=0:00:05.09    \nframe=    0 fps=0.0 q=0.0 size=       0KiB time=N/A bitrate=N/A speed=N/A elapsed=0:00:05.67    \nframe=    0 fps=0.0 q=0.0 size=       0KiB time=N/A bitrate=N/A speed=N/A elapsed=0:00:06.30    \nframe=    0 fps=0.0 q=0.0 size=       0KiB time=N/A bitrate=N/A speed=N/A elapsed=0:00:06.87    \nframe=    0 fps=0.0 q=0.0 size=       0KiB time=N/A bitrate=N/A speed=N/A elapsed=0:00:07.51    \nframe=    0 fps=0.0 q=0.0 size=       0KiB time=N/A bitrate=N/A speed=N/A elapsed=0:00:08.11    \nframe=    0 fps=0.0 q=0.0 size=       0KiB time=N/A bitrate=N/A speed=N/A elapsed=0:00:08.63    \nframe=    0 fps=0.0 q=0.0 size=       0KiB time=N/A bitrate=N/A speed=N/A elapsed=0:00:09.19    \nframe=    0 fps=0.0 q=0.0 size=       0KiB time=N/A bitrate=N/A speed=N/A elapsed=0:00:09.75    \nframe=    0 fps=0.0 q=0.0 size=       0KiB time=N/A bitrate=N/A speed=N/A elapsed=0:00:10.42    \nframe=    0 fps=0.0 q=0.0 size=       0KiB time=N/A bitrate=N/A speed=N/A elapsed=0:00:11.03    \nframe=    0 fps=0.0 q=0.0 size=       0KiB time=N/A bitrate=N/A speed=N/A elapsed=0:00:11.55    \nframe=    0 fps=0.0 q=0.0 size=       0KiB time=N/A bitrate=N/A speed=N/A elapsed=0:00:12.08    \nframe=    0 fps=0.0 q=0.0 size=       0KiB time=N/A bitrate=N/A speed=N/A elapsed=0:00:12.69    \nframe=    0 fps=0.0 q=0.0 size=       0KiB time=N/A bitrate=N/A speed=N/A elapsed=0:00:13.23    \nframe=    0 fps=0.0 q=0.0 size=       0KiB time=N/A bitrate=N/A speed=N/A elapsed=0:00:13.85    \nframe=    0 fps=0.0 q=0.0 size=       0KiB time=N/A bitrate=N/A speed=N/A elapsed=0:00:14.50    \nframe=    0 fps=0.0 q=0.0 size=       0KiB time=N/A bitrate=N/A speed=N/A elapsed=0:00:15.08    \nframe=    0 fps=0.0 q=0.0 size=       0KiB time=N/A bitrate=N/A speed=N/A elapsed=0:00:15.66    \nframe=    0 fps=0.0 q=0.0 size=       0KiB time=N/A bitrate=N/A speed=N/A elapsed=0:00:16.24    \nframe=    1 fps=0.1 q=39.2 size=       0KiB time=-00:00:00.03 bitrate=N/A speed=N/A elapsed=0:00:16.78    \nframe=    2 fps=0.1 q=43.2 size=       0KiB time=00:00:00.00 bitrate=N/A speed=   0x elapsed=0:00:17.31    \nframe=    3 fps=0.2 q=46.4 size=       0KiB time=00:00:00.03 bitrate=  10.6kbits/s speed=0.00187x elapsed=0:00:17.84    \nframe=    3 fps=0.2 q=46.4 size=       0KiB time=00:00:00.03 bitrate=  10.6kbits/s speed=0.00181x elapsed=0:00:18.37    \nframe=    3 fps=0.2 q=46.4 size=       0KiB time=00:00:00.03 bitrate=  10.6kbits/s speed=0.00176x elapsed=0:00:18.90    \nframe=    3 fps=0.2 q=46.4 size=       0KiB time=00:00:00.03 bitrate=  10.6kbits/s speed=0.00171x elapsed=0:00:19.44    \nframe=    3 fps=0.1 q=46.4 size=       0KiB time=00:00:00.03 bitrate=  10.6kbits/s speed=0.00166x elapsed=0:00:20.06    \nframe=    3 fps=0.1 q=46.4 size=       0KiB time=00:00:00.03 bitrate=  10.6kbits/s speed=0.00162x elapsed=0:00:20.59    \nframe=    3 fps=0.1 q=46.4 size=       0KiB time=00:00:00.03 bitrate=  10.6kbits/s speed=0.00157x elapsed=0:00:21.18    \nframe=    3 fps=0.1 q=46.4 size=       0KiB time=00:00:00.03 bitrate=  10.6kbits/s speed=0.00153x elapsed=0:00:21.72    \nframe=    4 fps=0.2 q=48.3 size=       0KiB time=00:00:00.06 bitrate=   5.3kbits/s speed=0.003x elapsed=0:00:22.25    \nframe=    4 fps=0.2 q=48.3 size=       0KiB time=00:00:00.06 bitrate=   5.3kbits/s speed=0.00292x elapsed=0:00:22.79    \nframe=    5 fps=0.2 q=47.8 size=       0KiB time=00:00:00.10 bitrate=   3.5kbits/s speed=0.00429x elapsed=0:00:23.31    \nframe=    5 fps=0.2 q=47.8 size=       0KiB time=00:00:00.10 bitrate=   3.5kbits/s speed=0.00419x elapsed=0:00:23.85    \nframe=    5 fps=0.2 q=47.8 size=       0KiB time=00:00:00.10 bitrate=   3.5kbits/s speed=0.0041x elapsed=0:00:24.40    \nframe=    5 fps=0.2 q=47.8 size=       0KiB time=00:00:00.10 bitrate=   3.5kbits/s speed=0.00401x elapsed=0:00:24.92    \nframe=    5 fps=0.2 q=47.8 size=       0KiB time=00:00:00.10 bitrate=   3.5kbits/s speed=0.00392x elapsed=0:00:25.48    \nframe=    5 fps=0.2 q=47.8 size=       0KiB time=00:00:00.10 bitrate=   3.5kbits/s speed=0.00383x elapsed=0:00:26.11    \nframe=    5 fps=0.2 q=47.8 size=       0KiB time=00:00:00.10 bitrate=   3.5kbits/s speed=0.00375x elapsed=0:00:26.69    \nframe=    5 fps=0.2 q=47.8 size=       0KiB time=00:00:00.10 bitrate=   3.5kbits/s speed=0.00366x elapsed=0:00:27.29    \nframe=    6 fps=0.2 q=43.7 size=       0KiB time=00:00:00.13 bitrate=   2.6kbits/s speed=0.00479x elapsed=0:00:27.80    \nframe=    6 fps=0.2 q=43.7 size=       0KiB time=00:00:00.13 bitrate=   2.6kbits/s speed=0.00471x elapsed=0:00:28.32    \nframe=    7 fps=0.2 q=45.6 size=       0KiB time=00:00:00.16 bitrate=   2.1kbits/s speed=0.00578x elapsed=0:00:28.84    \nframe=    7 fps=0.2 q=45.6 size=       0KiB time=00:00:00.16 bitrate=   2.1kbits/s speed=0.00568x elapsed=0:00:29.36    \nframe=    7 fps=0.2 q=45.6 size=       0KiB time=00:00:00.16 bitrate=   2.1kbits/s speed=0.00558x elapsed=0:00:29.87    \nframe=    7 fps=0.2 q=45.6 size=       0KiB time=00:00:00.16 bitrate=   2.1kbits/s speed=0.00547x elapsed=0:00:30.48    \nframe=    7 fps=0.2 q=45.6 size=       0KiB time=00:00:00.16 bitrate=   2.1kbits/s speed=0.00538x elapsed=0:00:31.00    \nframe=    7 fps=0.2 q=45.6 size=       0KiB time=00:00:00.16 bitrate=   2.1kbits/s speed=0.00528x elapsed=0:00:31.53    \nframe=    7 fps=0.2 q=45.6 size=       0KiB time=00:00:00.16 bitrate=   2.1kbits/s speed=0.00519x elapsed=0:00:32.10    \nframe=    7 fps=0.2 q=45.6 size=       0KiB time=00:00:00.16 bitrate=   2.1kbits/s speed=0.00508x elapsed=0:00:32.79    \nframe=    8 fps=0.2 q=47.2 size=       0KiB time=00:00:00.20 bitrate=   1.8kbits/s speed=0.006x elapsed=0:00:33.34    \nframe=    8 fps=0.2 q=47.2 size=       0KiB time=00:00:00.20 bitrate=   1.8kbits/s speed=0.0059x elapsed=0:00:33.88    \nframe=    8 fps=0.2 q=47.2 size=       0KiB time=00:00:00.20 bitrate=   1.8kbits/s speed=0.00579x elapsed=0:00:34.53    \nframe=    8 fps=0.2 q=47.2 size=       0KiB time=00:00:00.20 bitrate=   1.8kbits/s speed=0.0057x elapsed=0:00:35.10    \nframe=    8 fps=0.2 q=47.2 size=       0KiB time=00:00:00.20 bitrate=   1.8kbits/s speed=0.00561x elapsed=0:00:35.64    \nframe=    8 fps=0.2 q=47.2 size=       0KiB time=00:00:00.20 bitrate=   1.8kbits/s speed=0.00551x elapsed=0:00:36.32    \nframe=    8 fps=0.2 q=47.2 size=       0KiB time=00:00:00.20 bitrate=   1.8kbits/s speed=0.0054x elapsed=0:00:37.04    \nframe=    8 fps=0.2 q=47.2 size=       0KiB time=00:00:00.20 bitrate=   1.8kbits/s speed=0.00531x elapsed=0:00:37.62    \nframe=    8 fps=0.2 q=47.2 size=       0KiB time=00:00:00.20 bitrate=   1.8kbits/s speed=0.00524x elapsed=0:00:38.17    \nframe=    8 fps=0.2 q=47.2 size=       0KiB time=00:00:00.20 bitrate=   1.8kbits/s speed=0.00516x elapsed=0:00:38.73    \nframe=   10 fps=0.3 q=42.9 size=       0KiB time=00:00:00.26 bitrate=   1.3kbits/s speed=0.00679x elapsed=0:00:39.28    \nframe=   10 fps=0.3 q=42.9 size=       0KiB time=00:00:00.26 bitrate=   1.3kbits/s speed=0.00669x elapsed=0:00:39.87    \nframe=   10 fps=0.2 q=42.9 size=       0KiB time=00:00:00.26 bitrate=   1.3kbits/s speed=0.00659x elapsed=0:00:40.45    \nframe=   11 fps=0.3 q=45.6 size=       0KiB time=00:00:00.30 bitrate=   1.2kbits/s speed=0.0073x elapsed=0:00:41.09    \nframe=   11 fps=0.3 q=45.6 size=       0KiB time=00:00:00.30 bitrate=   1.2kbits/s speed=0.0072x elapsed=0:00:41.64    \nframe=   11 fps=0.3 q=45.6 size=       0KiB time=00:00:00.30 bitrate=   1.2kbits/s speed=0.0071x elapsed=0:00:42.25    \nframe=   11 fps=0.3 q=45.6 size=       0KiB time=00:00:00.30 bitrate=   1.2kbits/s speed=0.007x elapsed=0:00:42.83    \nframe=   11 fps=0.3 q=45.6 size=       0KiB time=00:00:00.30 bitrate=   1.2kbits/s speed=0.00692x elapsed=0:00:43.34    \nframe=   12 fps=0.3 q=47.9 size=       0KiB time=00:00:00.33 bitrate=   1.1kbits/s speed=0.00759x elapsed=0:00:43.89    \nframe=   12 fps=0.3 q=47.9 size=       0KiB time=00:00:00.33 bitrate=   1.1kbits/s speed=0.0075x elapsed=0:00:44.42    \nframe=   12 fps=0.3 q=47.9 size=       0KiB time=00:00:00.33 bitrate=   1.1kbits/s speed=0.00742x elapsed=0:00:44.94    \nframe=   13 fps=0.3 q=47.9 size=       0KiB time=00:00:00.36 bitrate=   1.0kbits/s speed=0.00805x elapsed=0:00:45.52    \nframe=   13 fps=0.3 q=47.9 size=       0KiB time=00:00:00.36 bitrate=   1.0kbits/s speed=0.00795x elapsed=0:00:46.09    \nframe=   13 fps=0.3 q=47.9 size=       0KiB time=00:00:00.36 bitrate=   1.0kbits/s speed=0.00787x elapsed=0:00:46.61    \nframe=   13 fps=0.3 q=47.9 size=       0KiB time=00:00:00.36 bitrate=   1.0kbits/s speed=0.00777x elapsed=0:00:47.19    \nframe=   14 fps=0.3 q=43.0 size=       0KiB time=00:00:00.40 bitrate=   0.9kbits/s speed=0.00838x elapsed=0:00:47.74    \nframe=   14 fps=0.3 q=43.0 size=       0KiB time=00:00:00.40 bitrate=   0.9kbits/s speed=0.00828x elapsed=0:00:48.29    \nframe=   14 fps=0.3 q=43.0 size=       0KiB time=00:00:00.40 bitrate=   0.9kbits/s speed=0.00819x elapsed=0:00:48.85    \nframe=   14 fps=0.3 q=43.0 size=       0KiB time=00:00:00.40 bitrate=   0.9kbits/s speed=0.00809x elapsed=0:00:49.43    \nframe=   15 fps=0.3 q=45.8 size=     256KiB time=00:00:00.43 bitrate=4840.4kbits/s speed=0.00867x elapsed=0:00:49.96    \nframe=   15 fps=0.3 q=45.8 size=     256KiB time=00:00:00.43 bitrate=4840.4kbits/s speed=0.00858x elapsed=0:00:50.48    \nframe=   15 fps=0.3 q=45.8 size=     256KiB time=00:00:00.43 bitrate=4840.4kbits/s speed=0.0085x elapsed=0:00:51.00    \nframe=   15 fps=0.3 q=45.8 size=     256KiB time=00:00:00.43 bitrate=4840.4kbits/s speed=0.00839x elapsed=0:00:51.63    \nframe=   15 fps=0.3 q=45.8 size=     256KiB time=00:00:00.43 bitrate=4840.4kbits/s speed=0.00829x elapsed=0:00:52.24    \nframe=   15 fps=0.3 q=45.8 size=     256KiB time=00:00:00.43 bitrate=4840.4kbits/s speed=0.0082x elapsed=0:00:52.83    \nframe=   15 fps=0.3 q=45.8 size=     256KiB time=00:00:00.43 bitrate=4840.4kbits/s speed=0.00811x elapsed=0:00:53.40    \nframe=   16 fps=0.3 q=47.9 size=     256KiB time=00:00:00.46 bitrate=4494.6kbits/s speed=0.00865x elapsed=0:00:53.91    \nframe=   16 fps=0.3 q=47.9 size=     256KiB time=00:00:00.46 bitrate=4494.6kbits/s speed=0.00857x elapsed=0:00:54.44    \nframe=   16 fps=0.3 q=47.9 size=     256KiB time=00:00:00.46 bitrate=4494.6kbits/s speed=0.00849x elapsed=0:00:54.95    \nframe=   16 fps=0.3 q=47.9 size=     256KiB time=00:00:00.46 bitrate=4494.6kbits/s speed=0.00841x elapsed=0:00:55.48    \nframe=   16 fps=0.3 q=47.9 size=     256KiB time=00:00:00.46 bitrate=4494.6kbits/s speed=0.00832x elapsed=0:00:56.07    \nframe=   16 fps=0.3 q=47.9 size=     256KiB time=00:00:00.46 bitrate=4494.6kbits/s speed=0.00824x elapsed=0:00:56.60    \nframe=   17 fps=0.3 q=47.9 size=     256KiB time=00:00:00.50 bitrate=4195.0kbits/s speed=0.00874x elapsed=0:00:57.19    \nframe=   17 fps=0.3 q=47.9 size=     256KiB time=00:00:00.50 bitrate=4195.0kbits/s speed=0.00865x elapsed=0:00:57.80    \nframe=   17 fps=0.3 q=47.9 size=     256KiB time=00:00:00.50 bitrate=4195.0kbits/s speed=0.00857x elapsed=0:00:58.36    \nframe=   17 fps=0.3 q=47.9 size=     256KiB time=00:00:00.50 bitrate=4195.0kbits/s speed=0.00848x elapsed=0:00:58.93    \nframe=   18 fps=0.3 q=43.1 size=     256KiB time=00:00:00.53 bitrate=3932.8kbits/s speed=0.00896x elapsed=0:00:59.49    \nframe=   18 fps=0.3 q=43.1 size=     256KiB time=00:00:00.53 bitrate=3932.8kbits/s speed=0.00888x elapsed=0:01:00.08    \nframe=   19 fps=0.3 q=45.5 size=     256KiB time=00:00:00.56 bitrate=3701.5kbits/s speed=0.00933x elapsed=0:01:00.73    \nframe=   19 fps=0.3 q=45.5 size=     256KiB time=00:00:00.56 bitrate=3701.5kbits/s speed=0.00923x elapsed=0:01:01.42    \nframe=   19 fps=0.3 q=45.5 size=     256KiB time=00:00:00.56 bitrate=3701.5kbits/s speed=0.00914x elapsed=0:01:02.03    \nframe=   19 fps=0.3 q=45.5 size=     256KiB time=00:00:00.56 bitrate=3701.5kbits/s speed=0.00905x elapsed=0:01:02.58    \nframe=   19 fps=0.3 q=45.5 size=     256KiB time=00:00:00.56 bitrate=3701.5kbits/s speed=0.00897x elapsed=0:01:03.17    \nframe=   19 fps=0.3 q=45.5 size=     256KiB time=00:00:00.56 bitrate=3701.5kbits/s speed=0.00888x elapsed=0:01:03.81    \nframe=   19 fps=0.3 q=45.5 size=     256KiB time=00:00:00.56 bitrate=3701.5kbits/s speed=0.0088x elapsed=0:01:04.37    \nframe=   19 fps=0.3 q=45.5 size=     256KiB time=00:00:00.56 bitrate=3701.5kbits/s speed=0.00872x elapsed=0:01:04.96    \nframe=   19 fps=0.3 q=45.5 size=     256KiB time=00:00:00.56 bitrate=3701.5kbits/s speed=0.00864x elapsed=0:01:05.58    \nframe=   19 fps=0.3 q=45.5 size=     256KiB time=00:00:00.56 bitrate=3701.5kbits/s speed=0.00857x elapsed=0:01:06.10    \nframe=   20 fps=0.3 q=48.0 size=     256KiB time=00:00:00.60 bitrate=3495.8kbits/s speed=0.009x elapsed=0:01:06.68    \nframe=   20 fps=0.3 q=48.0 size=     256KiB time=00:00:00.60 bitrate=3495.8kbits/s speed=0.00893x elapsed=0:01:07.20    \nframe=   20 fps=0.3 q=48.0 size=     256KiB time=00:00:00.60 bitrate=3495.8kbits/s speed=0.00885x elapsed=0:01:07.77    \nframe=   21 fps=0.3 q=48.0 size=     256KiB time=00:00:00.63 bitrate=3311.9kbits/s speed=0.00927x elapsed=0:01:08.33    \nframe=   21 fps=0.3 q=48.0 size=     256KiB time=00:00:00.63 bitrate=3311.9kbits/s speed=0.0092x elapsed=0:01:08.84    \nframe=   21 fps=0.3 q=48.0 size=     256KiB time=00:00:00.63 bitrate=3311.9kbits/s speed=0.00913x elapsed=0:01:09.35    \nframe=   21 fps=0.3 q=48.0 size=     256KiB time=00:00:00.63 bitrate=3311.9kbits/s speed=0.00905x elapsed=0:01:09.94    \nframe=   22 fps=0.3 q=42.8 size=     256KiB time=00:00:00.66 bitrate=3146.3kbits/s speed=0.00946x elapsed=0:01:10.48    \nframe=   22 fps=0.3 q=42.8 size=     256KiB time=00:00:00.66 bitrate=3146.3kbits/s speed=0.00938x elapsed=0:01:11.04    \nframe=   23 fps=0.3 q=46.3 size=     256KiB time=00:00:00.70 bitrate=2996.4kbits/s speed=0.00978x elapsed=0:01:11.59    \nframe=   23 fps=0.3 q=46.3 size=     256KiB time=00:00:00.70 bitrate=2996.4kbits/s speed=0.0097x elapsed=0:01:12.18    \nframe=   23 fps=0.3 q=46.3 size=     256KiB time=00:00:00.70 bitrate=2996.4kbits/s speed=0.00962x elapsed=0:01:12.73    \nframe=   24 fps=0.3 q=47.8 size=     256KiB time=00:00:00.73 bitrate=2860.2kbits/s speed=0.01x elapsed=0:01:13.32    \nframe=   24 fps=0.3 q=47.8 size=     256KiB time=00:00:00.73 bitrate=2860.2kbits/s speed=0.00993x elapsed=0:01:13.84    \nframe=   24 fps=0.3 q=47.8 size=     256KiB time=00:00:00.73 bitrate=2860.2kbits/s speed=0.00986x elapsed=0:01:14.37    \nframe=   24 fps=0.3 q=47.8 size=     256KiB time=00:00:00.73 bitrate=2860.2kbits/s speed=0.00979x elapsed=0:01:14.93    \nframe=   25 fps=0.3 q=47.8 size=     256KiB time=00:00:00.76 bitrate=2735.9kbits/s speed=0.0102x elapsed=0:01:15.48    \nframe=   25 fps=0.3 q=47.8 size=     256KiB time=00:00:00.76 bitrate=2735.9kbits/s speed=0.0101x elapsed=0:01:16.01    \nframe=   25 fps=0.3 q=47.8 size=     256KiB time=00:00:00.76 bitrate=2735.9kbits/s speed=0.00999x elapsed=0:01:16.76    \nframe=   25 fps=0.3 q=47.8 size=     256KiB time=00:00:00.76 bitrate=2735.9kbits/s speed=0.00991x elapsed=0:01:17.36    \nframe=   25 fps=0.3 q=47.8 size=     256KiB time=00:00:00.76 bitrate=2735.9kbits/s speed=0.00984x elapsed=0:01:17.93    \nframe=   25 fps=0.3 q=47.8 size=     256KiB time=00:00:00.76 bitrate=2735.9kbits/s speed=0.00977x elapsed=0:01:18.45    \nframe=   25 fps=0.3 q=47.8 size=     256KiB time=00:00:00.76 bitrate=2735.9kbits/s speed=0.0097x elapsed=0:01:19.00    \nframe=   25 fps=0.3 q=47.8 size=     256KiB time=00:00:00.76 bitrate=2735.9kbits/s speed=0.00964x elapsed=0:01:19.55    \nframe=   25 fps=0.3 q=47.8 size=     256KiB time=00:00:00.76 bitrate=2735.9kbits/s speed=0.00956x elapsed=0:01:20.16    \nframe=   25 fps=0.3 q=47.8 size=     256KiB time=00:00:00.76 bitrate=2735.9kbits/s speed=0.0095x elapsed=0:01:20.67    \nframe=   25 fps=0.3 q=47.8 size=     256KiB time=00:00:00.76 bitrate=2735.9kbits/s speed=0.00943x elapsed=0:01:21.27    \nframe=   26 fps=0.3 q=47.7 size=     256KiB time=00:00:00.80 bitrate=2621.9kbits/s speed=0.00978x elapsed=0:01:21.78    \nframe=   26 fps=0.3 q=47.7 size=     256KiB time=00:00:00.80 bitrate=2621.9kbits/s speed=0.00971x elapsed=0:01:22.35    \nframe=   26 fps=0.3 q=47.7 size=     256KiB time=00:00:00.80 bitrate=2621.9kbits/s speed=0.00964x elapsed=0:01:22.94    \nframe=   26 fps=0.3 q=47.7 size=     256KiB time=00:00:00.80 bitrate=2621.9kbits/s speed=0.00958x elapsed=0:01:23.51    \nframe=   26 fps=0.3 q=47.7 size=     256KiB time=00:00:00.80 bitrate=2621.9kbits/s speed=0.00951x elapsed=0:01:24.13    \nframe=   26 fps=0.3 q=47.7 size=     256KiB time=00:00:00.80 bitrate=2621.9kbits/s speed=0.00943x elapsed=0:01:24.82    \nframe=   27 fps=0.3 q=42.9 size=     256KiB time=00:00:00.83 bitrate=2517.0kbits/s speed=0.00976x elapsed=0:01:25.42    \nframe=   28 fps=0.3 q=45.1 size=     256KiB time=00:00:00.86 bitrate=2420.2kbits/s speed=0.0101x elapsed=0:01:25.98    \nframe=   28 fps=0.3 q=45.1 size=     256KiB time=00:00:00.86 bitrate=2420.2kbits/s speed=0.01x elapsed=0:01:26.55    \nframe=   28 fps=0.3 q=45.1 size=     256KiB time=00:00:00.86 bitrate=2420.2kbits/s speed=0.00995x elapsed=0:01:27.14    \nframe=   28 fps=0.3 q=45.1 size=     256KiB time=00:00:00.86 bitrate=2420.2kbits/s speed=0.00988x elapsed=0:01:27.69    \nframe=   28 fps=0.3 q=45.1 size=     256KiB time=00:00:00.86 bitrate=2420.2kbits/s speed=0.00982x elapsed=0:01:28.25    \nframe=   29 fps=0.3 q=47.4 size=     256KiB time=00:00:00.86 bitrate=2420.2kbits/s speed=0.00976x elapsed=0:01:28.82    \nframe=   29 fps=0.3 q=47.4 size=     256KiB time=00:00:00.90 bitrate=2330.6kbits/s speed=0.0101x elapsed=0:01:29.40    \nframe=   29 fps=0.3 q=47.4 size=     256KiB time=00:00:00.90 bitrate=2330.6kbits/s speed=0.01x elapsed=0:01:29.92    \nframe=   29 fps=0.3 q=47.4 size=     256KiB time=00:00:00.90 bitrate=2330.6kbits/s speed=0.00995x elapsed=0:01:30.48    \nframe=   29 fps=0.3 q=47.4 size=     256KiB time=00:00:00.90 bitrate=2330.6kbits/s speed=0.00988x elapsed=0:01:31.08    \nframe=   29 fps=0.3 q=47.4 size=     256KiB time=00:00:00.90 bitrate=2330.6kbits/s speed=0.00982x elapsed=0:01:31.62    \nframe=   29 fps=0.3 q=47.4 size=     256KiB time=00:00:00.90 bitrate=2330.6kbits/s speed=0.00976x elapsed=0:01:32.18    \nframe=   29 fps=0.3 q=47.4 size=     256KiB time=00:00:00.90 bitrate=2330.6kbits/s speed=0.0097x elapsed=0:01:32.76    \nframe=   29 fps=0.3 q=47.4 size=     256KiB time=00:00:00.90 bitrate=2330.6kbits/s speed=0.00964x elapsed=0:01:33.35    \nframe=   29 fps=0.3 q=47.4 size=     256KiB time=00:00:00.90 bitrate=2330.6kbits/s speed=0.00958x elapsed=0:01:33.92    \nframe=   30 fps=0.3 q=47.4 size=     256KiB time=00:00:00.93 bitrate=2247.3kbits/s speed=0.00987x elapsed=0:01:34.54    \nframe=   30 fps=0.3 q=47.4 size=     256KiB time=00:00:00.93 bitrate=2247.3kbits/s speed=0.00982x elapsed=0:01:35.08    \nframe=   30 fps=0.3 q=47.4 size=     256KiB time=00:00:00.93 bitrate=2247.3kbits/s speed=0.00976x elapsed=0:01:35.63    \nframe=   30 fps=0.3 q=47.4 size=     256KiB time=00:00:00.93 bitrate=2247.3kbits/s speed=0.00971x elapsed=0:01:36.15    \nframe=   30 fps=0.3 q=47.4 size=     256KiB time=00:00:00.93 bitrate=2247.3kbits/s speed=0.00965x elapsed=0:01:36.71    \nframe=   30 fps=0.3 q=47.4 size=     256KiB time=00:00:00.93 bitrate=2247.3kbits/s speed=0.00959x elapsed=0:01:37.29    \nframe=   30 fps=0.3 q=47.4 size=     256KiB time=00:00:00.93 bitrate=2247.3kbits/s speed=0.00953x elapsed=0:01:37.93    \nframe=   31 fps=0.3 q=42.8 size=     512KiB time=00:00:00.96 bitrate=4339.3kbits/s speed=0.0098x elapsed=0:01:38.62    \nframe=   32 fps=0.3 q=45.3 size=     512KiB time=00:00:01.00 bitrate=4194.7kbits/s speed=0.0101x elapsed=0:01:39.22    \nframe=   32 fps=0.3 q=45.3 size=     512KiB time=00:00:01.00 bitrate=4194.7kbits/s speed=0.01x elapsed=0:01:39.75    \nframe=   32 fps=0.3 q=45.3 size=     512KiB time=00:00:01.00 bitrate=4194.7kbits/s speed=0.00996x elapsed=0:01:40.37    \nframe=   32 fps=0.3 q=45.3 size=     512KiB time=00:00:01.00 bitrate=4194.7kbits/s speed=0.0099x elapsed=0:01:40.96    \nframe=   32 fps=0.3 q=45.3 size=     512KiB time=00:00:01.00 bitrate=4194.7kbits/s speed=0.00985x elapsed=0:01:41.51    \nframe=   32 fps=0.3 q=45.3 size=     512KiB time=00:00:01.00 bitrate=4194.7kbits/s speed=0.0098x elapsed=0:01:42.04    \nframe=   33 fps=0.3 q=47.4 size=     512KiB time=00:00:01.03 bitrate=4059.3kbits/s speed=0.0101x elapsed=0:01:42.64    \nframe=   33 fps=0.3 q=47.4 size=     512KiB time=00:00:01.03 bitrate=4059.3kbits/s speed=0.01x elapsed=0:01:43.25    \nframe=   33 fps=0.3 q=47.4 size=     512KiB time=00:00:01.03 bitrate=4059.3kbits/s speed=0.00995x elapsed=0:01:43.82    \nframe=   34 fps=0.3 q=47.5 size=     512KiB time=00:00:01.06 bitrate=3932.5kbits/s speed=0.0102x elapsed=0:01:44.36    \nframe=   34 fps=0.3 q=47.5 size=     512KiB time=00:00:01.06 bitrate=3932.5kbits/s speed=0.0102x elapsed=0:01:44.90    \nframe=   35 fps=0.3 q=42.9 size=     512KiB time=00:00:01.10 bitrate=3813.3kbits/s speed=0.0104x elapsed=0:01:45.41    \nframe=   35 fps=0.3 q=42.9 size=     512KiB time=00:00:01.10 bitrate=3813.3kbits/s speed=0.0104x elapsed=0:01:45.97    \nframe=   35 fps=0.3 q=42.9 size=     512KiB time=00:00:01.10 bitrate=3813.3kbits/s speed=0.0103x elapsed=0:01:46.50    \nframe=   35 fps=0.3 q=42.9 size=     512KiB time=00:00:01.10 bitrate=3813.3kbits/s speed=0.0103x elapsed=0:01:47.11    \nframe=   35 fps=0.3 q=42.9 size=     512KiB time=00:00:01.10 bitrate=3813.3kbits/s speed=0.0102x elapsed=0:01:47.70    \nframe=   36 fps=0.3 q=45.3 size=     512KiB time=00:00:01.13 bitrate=3701.2kbits/s speed=0.0105x elapsed=0:01:48.28    \nframe=   36 fps=0.3 q=45.3 size=     512KiB time=00:00:01.13 bitrate=3701.2kbits/s speed=0.0104x elapsed=0:01:48.84    \nframe=   36 fps=0.3 q=45.3 size=     512KiB time=00:00:01.13 bitrate=3701.2kbits/s speed=0.0104x elapsed=0:01:49.39    \nframe=   36 fps=0.3 q=45.3 size=     512KiB time=00:00:01.13 bitrate=3701.2kbits/s speed=0.0103x elapsed=0:01:49.94    \nframe=   37 fps=0.3 q=47.6 size=     512KiB time=00:00:01.16 bitrate=3595.4kbits/s speed=0.0106x elapsed=0:01:50.45    \nframe=   37 fps=0.3 q=47.6 size=     512KiB time=00:00:01.16 bitrate=3595.4kbits/s speed=0.0105x elapsed=0:01:51.14    \nframe=   37 fps=0.3 q=47.6 size=     512KiB time=00:00:01.16 bitrate=3595.4kbits/s speed=0.0104x elapsed=0:01:51.78    \nframe=   37 fps=0.3 q=47.6 size=     512KiB time=00:00:01.16 bitrate=3595.4kbits/s speed=0.0104x elapsed=0:01:52.41    \nframe=   37 fps=0.3 q=47.6 size=     512KiB time=00:00:01.16 bitrate=3595.4kbits/s speed=0.0103x elapsed=0:01:52.96    \nframe=   37 fps=0.3 q=47.6 size=     512KiB time=00:00:01.16 bitrate=3595.4kbits/s speed=0.0103x elapsed=0:01:53.48    \nframe=   37 fps=0.3 q=47.6 size=     512KiB time=00:00:01.16 bitrate=3595.4kbits/s speed=0.0102x elapsed=0:01:54.05    \nframe=   38 fps=0.3 q=47.3 size=     512KiB time=00:00:01.20 bitrate=3495.5kbits/s speed=0.0105x elapsed=0:01:54.57    \nframe=   38 fps=0.3 q=47.3 size=     512KiB time=00:00:01.20 bitrate=3495.5kbits/s speed=0.0104x elapsed=0:01:55.12    \nframe=   39 fps=0.3 q=42.8 size=     512KiB time=00:00:01.23 bitrate=3401.1kbits/s speed=0.0107x elapsed=0:01:55.65    \nframe=   39 fps=0.3 q=42.8 size=     512KiB time=00:00:01.23 bitrate=3401.1kbits/s speed=0.0106x elapsed=0:01:56.22    \nframe=   39 fps=0.3 q=42.8 size=     512KiB time=00:00:01.23 bitrate=3401.1kbits/s speed=0.0106x elapsed=0:01:56.73    \nframe=   39 fps=0.3 q=42.8 size=     512KiB time=00:00:01.23 bitrate=3401.1kbits/s speed=0.0105x elapsed=0:01:57.27    \nframe=   40 fps=0.3 q=45.2 size=     512KiB time=00:00:01.26 bitrate=3311.6kbits/s speed=0.0108x elapsed=0:01:57.80    \nframe=   40 fps=0.3 q=45.2 size=     512KiB time=00:00:01.26 bitrate=3311.6kbits/s speed=0.0107x elapsed=0:01:58.33    \nframe=   40 fps=0.3 q=45.2 size=     512KiB time=00:00:01.26 bitrate=3311.6kbits/s speed=0.0107x elapsed=0:01:58.89    \nframe=   41 fps=0.3 q=47.3 size=     512KiB time=00:00:01.30 bitrate=3226.7kbits/s speed=0.0109x elapsed=0:01:59.39    \nframe=   41 fps=0.3 q=47.3 size=     512KiB time=00:00:01.30 bitrate=3226.7kbits/s speed=0.0108x elapsed=0:01:59.94    \nframe=   42 fps=0.3 q=47.5 size=     512KiB time=00:00:01.33 bitrate=3146.0kbits/s speed=0.0111x elapsed=0:02:00.47    \nframe=   42 fps=0.3 q=47.5 size=     512KiB time=00:00:01.33 bitrate=3146.0kbits/s speed=0.011x elapsed=0:02:00.99    \nframe=   42 fps=0.3 q=47.5 size=     512KiB time=00:00:01.33 bitrate=3146.0kbits/s speed=0.011x elapsed=0:02:01.53    \nframe=   42 fps=0.3 q=47.5 size=     512KiB time=00:00:01.33 bitrate=3146.0kbits/s speed=0.0109x elapsed=0:02:02.09    \nframe=   42 fps=0.3 q=47.5 size=     512KiB time=00:00:01.33 bitrate=3146.0kbits/s speed=0.0109x elapsed=0:02:02.60    \nframe=   43 fps=0.3 q=43.1 size=     512KiB time=00:00:01.36 bitrate=3069.3kbits/s speed=0.0111x elapsed=0:02:03.18    \nframe=   43 fps=0.3 q=43.1 size=     512KiB time=00:00:01.36 bitrate=3069.3kbits/s speed=0.011x elapsed=0:02:03.76    \nframe=   44 fps=0.4 q=45.4 size=     512KiB time=00:00:01.40 bitrate=2996.2kbits/s speed=0.0113x elapsed=0:02:04.28    \nframe=   44 fps=0.4 q=45.4 size=     512KiB time=00:00:01.40 bitrate=2996.2kbits/s speed=0.0112x elapsed=0:02:04.80    \nframe=   44 fps=0.4 q=45.4 size=     512KiB time=00:00:01.40 bitrate=2996.2kbits/s speed=0.0112x elapsed=0:02:05.37    \nframe=   44 fps=0.3 q=45.4 size=     512KiB time=00:00:01.40 bitrate=2996.2kbits/s speed=0.0111x elapsed=0:02:05.92    \nframe=   44 fps=0.3 q=45.4 size=     512KiB time=00:00:01.40 bitrate=2996.2kbits/s speed=0.0111x elapsed=0:02:06.47    \nframe=   45 fps=0.4 q=47.5 size=     512KiB time=00:00:01.43 bitrate=2926.5kbits/s speed=0.0113x elapsed=0:02:07.04    \nframe=   45 fps=0.4 q=47.5 size=     512KiB time=00:00:01.43 bitrate=2926.5kbits/s speed=0.0112x elapsed=0:02:07.56    \nframe=   45 fps=0.4 q=47.5 size=     512KiB time=00:00:01.43 bitrate=2926.5kbits/s speed=0.0112x elapsed=0:02:08.07    \nframe=   45 fps=0.3 q=47.5 size=     512KiB time=00:00:01.43 bitrate=2926.5kbits/s speed=0.0111x elapsed=0:02:08.59    \nframe=   45 fps=0.3 q=47.5 size=     512KiB time=00:00:01.43 bitrate=2926.5kbits/s speed=0.0111x elapsed=0:02:09.14    \nframe=   45 fps=0.3 q=47.5 size=     512KiB time=00:00:01.43 bitrate=2926.5kbits/s speed=0.011x elapsed=0:02:09.72    \nframe=   45 fps=0.3 q=47.5 size=     512KiB time=00:00:01.43 bitrate=2926.5kbits/s speed=0.011x elapsed=0:02:10.24    \nframe=   45 fps=0.3 q=47.5 size=     512KiB time=00:00:01.43 bitrate=2926.5kbits/s speed=0.011x elapsed=0:02:10.78    \nframe=   46 fps=0.4 q=47.3 size=     768KiB time=00:00:01.46 bitrate=4289.9kbits/s speed=0.0112x elapsed=0:02:11.29    \nframe=   46 fps=0.3 q=47.3 size=     768KiB time=00:00:01.46 bitrate=4289.9kbits/s speed=0.0111x elapsed=0:02:11.81    \nframe=   46 fps=0.3 q=47.3 size=     768KiB time=00:00:01.46 bitrate=4289.9kbits/s speed=0.0111x elapsed=0:02:12.39    \nframe=   47 fps=0.4 q=43.0 size=     768KiB time=00:00:01.50 bitrate=4194.5kbits/s speed=0.0113x elapsed=0:02:12.93    \nframe=   48 fps=0.4 q=45.5 size=     768KiB time=00:00:01.53 bitrate=4103.4kbits/s speed=0.0115x elapsed=0:02:13.46    \nframe=   48 fps=0.4 q=45.5 size=     768KiB time=00:00:01.53 bitrate=4103.4kbits/s speed=0.0114x elapsed=0:02:14.00    \nframe=   48 fps=0.4 q=45.5 size=     768KiB time=00:00:01.53 bitrate=4103.4kbits/s speed=0.0114x elapsed=0:02:14.55    \nframe=   48 fps=0.4 q=45.5 size=     768KiB time=00:00:01.53 bitrate=4103.4kbits/s speed=0.0114x elapsed=0:02:15.09    \nframe=   48 fps=0.4 q=45.5 size=     768KiB time=00:00:01.53 bitrate=4103.4kbits/s speed=0.0113x elapsed=0:02:15.66    \nframe=   48 fps=0.4 q=45.5 size=     768KiB time=00:00:01.53 bitrate=4103.4kbits/s speed=0.0113x elapsed=0:02:16.16    \nframe=   48 fps=0.4 q=45.5 size=     768KiB time=00:00:01.53 bitrate=4103.4kbits/s speed=0.0112x elapsed=0:02:16.69    \nframe=   48 fps=0.3 q=45.5 size=     768KiB time=00:00:01.53 bitrate=4103.4kbits/s speed=0.0112x elapsed=0:02:17.21    \nframe=   48 fps=0.3 q=45.5 size=     768KiB time=00:00:01.53 bitrate=4103.4kbits/s speed=0.0111x elapsed=0:02:17.76    \nframe=   48 fps=0.3 q=45.5 size=     768KiB time=00:00:01.53 bitrate=4103.4kbits/s speed=0.0111x elapsed=0:02:18.30    \nframe=   48 fps=0.3 q=45.5 size=     768KiB time=00:00:01.53 bitrate=4103.4kbits/s speed=0.011x elapsed=0:02:18.91    \nframe=   48 fps=0.3 q=45.5 size=     768KiB time=00:00:01.53 bitrate=4103.4kbits/s speed=0.011x elapsed=0:02:19.47    \nframe=   49 fps=0.3 q=47.3 size=     768KiB time=00:00:01.56 bitrate=4016.0kbits/s speed=0.0112x elapsed=0:02:20.14    \nframe=   49 fps=0.3 q=47.3 size=     768KiB time=00:00:01.56 bitrate=4016.0kbits/s speed=0.0111x elapsed=0:02:20.88    \nframe=   49 fps=0.3 q=47.3 size=     768KiB time=00:00:01.56 bitrate=4016.0kbits/s speed=0.0111x elapsed=0:02:21.47    \nframe=   49 fps=0.3 q=47.3 size=     768KiB time=00:00:01.56 bitrate=4016.0kbits/s speed=0.011x elapsed=0:02:22.02    \nframe=   49 fps=0.3 q=47.3 size=     768KiB time=00:00:01.56 bitrate=4016.0kbits/s speed=0.011x elapsed=0:02:22.77    \nframe=   50 fps=0.3 q=47.6 size=     768KiB time=00:00:01.60 bitrate=3932.4kbits/s speed=0.0112x elapsed=0:02:23.35    \nframe=   51 fps=0.4 q=43.3 size=     768KiB time=00:00:01.63 bitrate=3852.1kbits/s speed=0.0113x elapsed=0:02:23.95    \nframe=   51 fps=0.4 q=43.3 size=     768KiB time=00:00:01.63 bitrate=3852.1kbits/s speed=0.0113x elapsed=0:02:24.47    \nframe=   51 fps=0.4 q=43.3 size=     768KiB time=00:00:01.63 bitrate=3852.1kbits/s speed=0.0113x elapsed=0:02:25.11    \nframe=   52 fps=0.4 q=45.7 size=     768KiB time=00:00:01.66 bitrate=3775.1kbits/s speed=0.0114x elapsed=0:02:25.70    \nframe=   52 fps=0.4 q=45.7 size=     768KiB time=00:00:01.66 bitrate=3775.1kbits/s speed=0.0114x elapsed=0:02:26.22    \nframe=   52 fps=0.4 q=45.7 size=     768KiB time=00:00:01.66 bitrate=3775.1kbits/s speed=0.0114x elapsed=0:02:26.79    \nframe=   52 fps=0.4 q=45.7 size=     768KiB time=00:00:01.66 bitrate=3775.1kbits/s speed=0.0113x elapsed=0:02:27.34    \nframe=   52 fps=0.4 q=45.7 size=     768KiB time=00:00:01.66 bitrate=3775.1kbits/s speed=0.0113x elapsed=0:02:27.92    \nframe=   52 fps=0.4 q=45.7 size=     768KiB time=00:00:01.66 bitrate=3775.1kbits/s speed=0.0112x elapsed=0:02:28.53    \nframe=   53 fps=0.4 q=47.4 size=     768KiB time=00:00:01.70 bitrate=3701.1kbits/s speed=0.0114x elapsed=0:02:29.07    \nframe=   53 fps=0.4 q=47.4 size=     768KiB time=00:00:01.70 bitrate=3701.1kbits/s speed=0.0114x elapsed=0:02:29.65    \nframe=   53 fps=0.4 q=47.4 size=     768KiB time=00:00:01.70 bitrate=3701.1kbits/s speed=0.0113x elapsed=0:02:30.18    \nframe=   53 fps=0.4 q=47.4 size=     768KiB time=00:00:01.70 bitrate=3701.1kbits/s speed=0.0113x elapsed=0:02:30.71    \nframe=   53 fps=0.4 q=47.4 size=     768KiB time=00:00:01.70 bitrate=3701.1kbits/s speed=0.0112x elapsed=0:02:31.24    \nframe=   53 fps=0.3 q=47.4 size=     768KiB time=00:00:01.70 bitrate=3701.1kbits/s speed=0.0112x elapsed=0:02:31.82    \nframe=   53 fps=0.3 q=47.4 size=     768KiB time=00:00:01.70 bitrate=3701.1kbits/s speed=0.0112x elapsed=0:02:32.35    \nframe=   53 fps=0.3 q=47.4 size=     768KiB time=00:00:01.70 bitrate=3701.1kbits/s speed=0.0111x elapsed=0:02:32.86    \nframe=   54 fps=0.4 q=47.5 size=     768KiB time=00:00:01.73 bitrate=3629.9kbits/s speed=0.0113x elapsed=0:02:33.38    \nframe=   54 fps=0.4 q=47.5 size=     768KiB time=00:00:01.73 bitrate=3629.9kbits/s speed=0.0113x elapsed=0:02:33.90    \nframe=   54 fps=0.3 q=47.5 size=     768KiB time=00:00:01.73 bitrate=3629.9kbits/s speed=0.0112x elapsed=0:02:34.45    \nframe=   54 fps=0.3 q=47.5 size=     768KiB time=00:00:01.73 bitrate=3629.9kbits/s speed=0.0112x elapsed=0:02:35.04    \nframe=   54 fps=0.3 q=47.5 size=     768KiB time=00:00:01.73 bitrate=3629.9kbits/s speed=0.0111x elapsed=0:02:35.59    \nframe=   55 fps=0.4 q=42.9 size=     768KiB time=00:00:01.76 bitrate=3561.4kbits/s speed=0.0113x elapsed=0:02:36.12    \nframe=   55 fps=0.4 q=42.9 size=     768KiB time=00:00:01.76 bitrate=3561.4kbits/s speed=0.0113x elapsed=0:02:36.66    \nframe=   55 fps=0.3 q=42.9 size=     768KiB time=00:00:01.76 bitrate=3561.4kbits/s speed=0.0112x elapsed=0:02:37.25    \nframe=   56 fps=0.4 q=45.3 size=     768KiB time=00:00:01.80 bitrate=3495.4kbits/s speed=0.0114x elapsed=0:02:37.77    \nframe=   56 fps=0.4 q=45.3 size=     768KiB time=00:00:01.80 bitrate=3495.4kbits/s speed=0.0114x elapsed=0:02:38.28    \nframe=   56 fps=0.4 q=45.3 size=     768KiB time=00:00:01.80 bitrate=3495.4kbits/s speed=0.0113x elapsed=0:02:38.80    \nframe=   57 fps=0.4 q=47.5 size=     768KiB time=00:00:01.83 bitrate=3431.9kbits/s speed=0.0115x elapsed=0:02:39.30    \nframe=   57 fps=0.4 q=47.5 size=     768KiB time=00:00:01.83 bitrate=3431.9kbits/s speed=0.0115x elapsed=0:02:39.82    \nframe=   57 fps=0.4 q=47.5 size=     768KiB time=00:00:01.83 bitrate=3431.9kbits/s speed=0.0114x elapsed=0:02:40.35    \nframe=   57 fps=0.4 q=47.5 size=     768KiB time=00:00:01.83 bitrate=3431.9kbits/s speed=0.0114x elapsed=0:02:40.87    \nframe=   57 fps=0.4 q=47.5 size=     768KiB time=00:00:01.83 bitrate=3431.9kbits/s speed=0.0114x elapsed=0:02:41.39    \nframe=   58 fps=0.4 q=47.3 size=     768KiB time=00:00:01.86 bitrate=3370.6kbits/s speed=0.0115x elapsed=0:02:41.91    \nframe=   58 fps=0.4 q=47.3 size=     768KiB time=00:00:01.86 bitrate=3370.6kbits/s speed=0.0115x elapsed=0:02:42.42    \nframe=   59 fps=0.4 q=43.0 size=     768KiB time=00:00:01.90 bitrate=3311.5kbits/s speed=0.0117x elapsed=0:02:42.95    \nframe=   60 fps=0.4 q=45.4 size=     768KiB time=00:00:01.93 bitrate=3254.4kbits/s speed=0.0118x elapsed=0:02:43.51    \nframe=   60 fps=0.4 q=45.4 size=     768KiB time=00:00:01.93 bitrate=3254.4kbits/s speed=0.0118x elapsed=0:02:44.04    \nframe=   61 fps=0.4 q=47.5 size=    1024KiB time=00:00:01.96 bitrate=4265.6kbits/s speed=0.012x elapsed=0:02:44.56    \nframe=   61 fps=0.4 q=47.5 size=    1024KiB time=00:00:01.96 bitrate=4265.6kbits/s speed=0.0119x elapsed=0:02:45.08    \nframe=   61 fps=0.4 q=47.5 size=    1024KiB time=00:00:01.96 bitrate=4265.6kbits/s speed=0.0119x elapsed=0:02:45.63    \nframe=   61 fps=0.4 q=47.5 size=    1024KiB time=00:00:01.96 bitrate=4265.6kbits/s speed=0.0118x elapsed=0:02:46.18    \nframe=   61 fps=0.4 q=47.5 size=    1024KiB time=00:00:01.96 bitrate=4265.6kbits/s speed=0.0118x elapsed=0:02:46.69    \nframe=   62 fps=0.4 q=47.4 size=    1024KiB time=00:00:02.00 bitrate=4194.5kbits/s speed=0.012x elapsed=0:02:47.21    \nframe=   63 fps=0.4 q=43.1 size=    1024KiB time=00:00:02.03 bitrate=4125.7kbits/s speed=0.0121x elapsed=0:02:47.73    \nframe=   63 fps=0.4 q=43.1 size=    1024KiB time=00:00:02.03 bitrate=4125.7kbits/s speed=0.0121x elapsed=0:02:48.25    \nframe=   63 fps=0.4 q=43.1 size=    1024KiB time=00:00:02.03 bitrate=4125.7kbits/s speed=0.012x elapsed=0:02:48.78    \nframe=   63 fps=0.4 q=43.1 size=    1024KiB time=00:00:02.03 bitrate=4125.7kbits/s speed=0.012x elapsed=0:02:49.31    \nframe=   63 fps=0.4 q=43.1 size=    1024KiB time=00:00:02.03 bitrate=4125.7kbits/s speed=0.012x elapsed=0:02:49.84    \nframe=   63 fps=0.4 q=43.1 size=    1024KiB time=00:00:02.03 bitrate=4125.7kbits/s speed=0.0119x elapsed=0:02:50.37    \nframe=   63 fps=0.4 q=43.1 size=    1024KiB time=00:00:02.03 bitrate=4125.7kbits/s speed=0.0119x elapsed=0:02:50.89    \nframe=   64 fps=0.4 q=45.3 size=    1024KiB time=00:00:02.06 bitrate=4059.2kbits/s speed=0.0121x elapsed=0:02:51.45    \nframe=   64 fps=0.4 q=45.3 size=    1024KiB time=00:00:02.06 bitrate=4059.2kbits/s speed=0.012x elapsed=0:02:51.97    \nframe=   64 fps=0.4 q=45.3 size=    1024KiB time=00:00:02.06 bitrate=4059.2kbits/s speed=0.012x elapsed=0:02:52.50    \nframe=   64 fps=0.4 q=45.3 size=    1024KiB time=00:00:02.06 bitrate=4059.2kbits/s speed=0.0119x elapsed=0:02:53.05    \nframe=   65 fps=0.4 q=47.4 size=    1024KiB time=00:00:02.10 bitrate=3994.7kbits/s speed=0.0121x elapsed=0:02:53.58    \nframe=   66 fps=0.4 q=47.4 size=    1024KiB time=00:00:02.13 bitrate=3932.3kbits/s speed=0.0123x elapsed=0:02:54.09    \nframe=   66 fps=0.4 q=47.4 size=    1024KiB time=00:00:02.13 bitrate=3932.3kbits/s speed=0.0122x elapsed=0:02:54.61    \nframe=   66 fps=0.4 q=47.4 size=    1024KiB time=00:00:02.13 bitrate=3932.3kbits/s speed=0.0122x elapsed=0:02:55.12    \nframe=   66 fps=0.4 q=47.4 size=    1024KiB time=00:00:02.13 bitrate=3932.3kbits/s speed=0.0121x elapsed=0:02:55.65    \nframe=   66 fps=0.4 q=47.4 size=    1024KiB time=00:00:02.13 bitrate=3932.3kbits/s speed=0.0121x elapsed=0:02:56.18    \nframe=   66 fps=0.4 q=47.4 size=    1024KiB time=00:00:02.13 bitrate=3932.3kbits/s speed=0.0121x elapsed=0:02:56.72    \nframe=   66 fps=0.4 q=47.4 size=    1024KiB time=00:00:02.13 bitrate=3932.3kbits/s speed=0.012x elapsed=0:02:57.22    \nframe=   67 fps=0.4 q=42.6 size=    1024KiB time=00:00:02.16 bitrate=3871.8kbits/s speed=0.0122x elapsed=0:02:57.74    \nframe=   67 fps=0.4 q=42.6 size=    1024KiB time=00:00:02.16 bitrate=3871.8kbits/s speed=0.0122x elapsed=0:02:58.26    \nframe=   67 fps=0.4 q=42.6 size=    1024KiB time=00:00:02.16 bitrate=3871.8kbits/s speed=0.0121x elapsed=0:02:58.78    \nframe=   67 fps=0.4 q=42.6 size=    1024KiB time=00:00:02.16 bitrate=3871.8kbits/s speed=0.0121x elapsed=0:02:59.30    \nframe=   67 fps=0.4 q=42.6 size=    1024KiB time=00:00:02.16 bitrate=3871.8kbits/s speed=0.012x elapsed=0:02:59.87    \nframe=   68 fps=0.4 q=46.0 size=    1024KiB time=00:00:02.20 bitrate=3813.2kbits/s speed=0.0122x elapsed=0:03:00.38    \nframe=   68 fps=0.4 q=46.0 size=    1024KiB time=00:00:02.20 bitrate=3813.2kbits/s speed=0.0122x elapsed=0:03:00.92    \nframe=   68 fps=0.4 q=46.0 size=    1024KiB time=00:00:02.20 bitrate=3813.2kbits/s speed=0.0121x elapsed=0:03:01.42    \nframe=   68 fps=0.4 q=46.0 size=    1024KiB time=00:00:02.20 bitrate=3813.2kbits/s speed=0.0121x elapsed=0:03:01.94    \nframe=   68 fps=0.4 q=46.0 size=    1024KiB time=00:00:02.20 bitrate=3813.2kbits/s speed=0.0121x elapsed=0:03:02.48    \nframe=   69 fps=0.4 q=47.1 size=    1024KiB time=00:00:02.23 bitrate=3756.3kbits/s speed=0.0122x elapsed=0:03:03.02    \nframe=   69 fps=0.4 q=47.1 size=    1024KiB time=00:00:02.23 bitrate=3756.3kbits/s speed=0.0122x elapsed=0:03:03.54    \nframe=   69 fps=0.4 q=47.1 size=    1024KiB time=00:00:02.23 bitrate=3756.3kbits/s speed=0.0121x elapsed=0:03:04.07    \nframe=   69 fps=0.4 q=47.1 size=    1024KiB time=00:00:02.23 bitrate=3756.3kbits/s speed=0.0121x elapsed=0:03:04.59    \nframe=   71 fps=0.4 q=47.9 size=    1024KiB time=00:00:02.30 bitrate=3647.4kbits/s speed=0.0124x elapsed=0:03:05.11    \nframe=   71 fps=0.4 q=47.9 size=    1024KiB time=00:00:02.30 bitrate=3647.4kbits/s speed=0.0124x elapsed=0:03:05.61    \nframe=   71 fps=0.4 q=47.9 size=    1024KiB time=00:00:02.30 bitrate=3647.4kbits/s speed=0.0124x elapsed=0:03:06.16    \nframe=   71 fps=0.4 q=47.9 size=    1024KiB time=00:00:02.30 bitrate=3647.4kbits/s speed=0.0123x elapsed=0:03:06.71    \nframe=   71 fps=0.4 q=47.9 size=    1024KiB time=00:00:02.30 bitrate=3647.4kbits/s speed=0.0123x elapsed=0:03:07.28    \nframe=   71 fps=0.4 q=47.9 size=    1024KiB time=00:00:02.30 bitrate=3647.4kbits/s speed=0.0122x elapsed=0:03:07.81    \nframe=   71 fps=0.4 q=47.9 size=    1024KiB time=00:00:02.30 bitrate=3647.4kbits/s speed=0.0122x elapsed=0:03:08.34    \nframe=   71 fps=0.4 q=47.9 size=    1024KiB time=00:00:02.30 bitrate=3647.4kbits/s speed=0.0122x elapsed=0:03:08.85    \nframe=   72 fps=0.4 q=42.7 size=    1024KiB time=00:00:02.33 bitrate=3595.3kbits/s speed=0.0123x elapsed=0:03:09.37    \nframe=   72 fps=0.4 q=42.7 size=    1024KiB time=00:00:02.33 bitrate=3595.3kbits/s speed=0.0123x elapsed=0:03:09.91    \nframe=   72 fps=0.4 q=42.7 size=    1024KiB time=00:00:02.33 bitrate=3595.3kbits/s speed=0.0122x elapsed=0:03:10.48    \nframe=   72 fps=0.4 q=42.7 size=    1024KiB time=00:00:02.33 bitrate=3595.3kbits/s speed=0.0122x elapsed=0:03:11.01    \nframe=   73 fps=0.4 q=45.1 size=    1024KiB time=00:00:02.36 bitrate=3544.6kbits/s speed=0.0124x elapsed=0:03:11.52    \nframe=   73 fps=0.4 q=45.1 size=    1024KiB time=00:00:02.36 bitrate=3544.6kbits/s speed=0.0123x elapsed=0:03:12.04    \nframe=   73 fps=0.4 q=45.1 size=    1024KiB time=00:00:02.36 bitrate=3544.6kbits/s speed=0.0123x elapsed=0:03:12.61    \nframe=   74 fps=0.4 q=48.0 size=    1024KiB time=00:00:02.40 bitrate=3495.4kbits/s speed=0.0124x elapsed=0:03:13.12    \nframe=   75 fps=0.4 q=48.0 size=    1024KiB time=00:00:02.43 bitrate=3447.5kbits/s speed=0.0126x elapsed=0:03:13.65    \nframe=   75 fps=0.4 q=48.0 size=    1024KiB time=00:00:02.43 bitrate=3447.5kbits/s speed=0.0125x elapsed=0:03:14.17    \nframe=   75 fps=0.4 q=48.0 size=    1024KiB time=00:00:02.43 bitrate=3447.5kbits/s speed=0.0125x elapsed=0:03:14.71    \nframe=   75 fps=0.4 q=48.0 size=    1024KiB time=00:00:02.43 bitrate=3447.5kbits/s speed=0.0125x elapsed=0:03:15.23    \nframe=   76 fps=0.4 q=42.9 size=    1024KiB time=00:00:02.46 bitrate=3400.9kbits/s speed=0.0126x elapsed=0:03:15.74    \nframe=   76 fps=0.4 q=42.9 size=    1024KiB time=00:00:02.46 bitrate=3400.9kbits/s speed=0.0126x elapsed=0:03:16.27    \nframe=   76 fps=0.4 q=42.9 size=    1024KiB time=00:00:02.46 bitrate=3400.9kbits/s speed=0.0125x elapsed=0:03:16.80    \nframe=   76 fps=0.4 q=42.9 size=    1024KiB time=00:00:02.46 bitrate=3400.9kbits/s speed=0.0125x elapsed=0:03:17.32    \nframe=   77 fps=0.4 q=46.4 size=    1024KiB time=00:00:02.50 bitrate=3355.6kbits/s speed=0.0126x elapsed=0:03:17.84    \nframe=   77 fps=0.4 q=46.4 size=    1024KiB time=00:00:02.50 bitrate=3355.6kbits/s speed=0.0126x elapsed=0:03:18.35    \nframe=   77 fps=0.4 q=46.4 size=    1024KiB time=00:00:02.50 bitrate=3355.6kbits/s speed=0.0126x elapsed=0:03:18.87    \nframe=   77 fps=0.4 q=46.4 size=    1024KiB time=00:00:02.50 bitrate=3355.6kbits/s speed=0.0125x elapsed=0:03:19.39    \nframe=   79 fps=0.4 q=47.3 size=    1280KiB time=00:00:02.56 bitrate=4085.5kbits/s speed=0.0128x elapsed=0:03:19.90    \nframe=   79 fps=0.4 q=47.3 size=    1280KiB time=00:00:02.56 bitrate=4085.5kbits/s speed=0.0128x elapsed=0:03:20.42    \nframe=   80 fps=0.4 q=47.4 size=    1280KiB time=00:00:02.60 bitrate=4033.1kbits/s speed=0.0129x elapsed=0:03:20.95    \nframe=   80 fps=0.4 q=47.4 size=    1280KiB time=00:00:02.60 bitrate=4033.1kbits/s speed=0.0129x elapsed=0:03:21.48    \nframe=   80 fps=0.4 q=47.4 size=    1280KiB time=00:00:02.60 bitrate=4033.1kbits/s speed=0.0129x elapsed=0:03:21.99    \nframe=   80 fps=0.4 q=47.4 size=    1280KiB time=00:00:02.60 bitrate=4033.1kbits/s speed=0.0128x elapsed=0:03:22.50    \nframe=   80 fps=0.4 q=47.4 size=    1280KiB time=00:00:02.60 bitrate=4033.1kbits/s speed=0.0128x elapsed=0:03:23.02    \nframe=   81 fps=0.4 q=43.1 size=    1280KiB time=00:00:02.63 bitrate=3982.1kbits/s speed=0.0129x elapsed=0:03:23.55    \nframe=   81 fps=0.4 q=43.1 size=    1280KiB time=00:00:02.63 bitrate=3982.1kbits/s speed=0.0129x elapsed=0:03:24.07    \nframe=   81 fps=0.4 q=43.1 size=    1280KiB time=00:00:02.63 bitrate=3982.1kbits/s speed=0.0129x elapsed=0:03:24.58    \nframe=   82 fps=0.4 q=45.2 size=    1280KiB time=00:00:02.66 bitrate=3932.3kbits/s speed=0.013x elapsed=0:03:25.10    \nframe=   83 fps=0.4 q=47.1 size=    1280KiB time=00:00:02.70 bitrate=3883.7kbits/s speed=0.0131x elapsed=0:03:25.62    \nframe=   83 fps=0.4 q=47.1 size=    1280KiB time=00:00:02.70 bitrate=3883.7kbits/s speed=0.0131x elapsed=0:03:26.15    \nframe=   83 fps=0.4 q=47.1 size=    1280KiB time=00:00:02.70 bitrate=3883.7kbits/s speed=0.0131x elapsed=0:03:26.69    \nframe=   83 fps=0.4 q=47.1 size=    1280KiB time=00:00:02.70 bitrate=3883.7kbits/s speed=0.013x elapsed=0:03:27.21    \nframe=   84 fps=0.4 q=47.1 size=    1280KiB time=00:00:02.73 bitrate=3836.4kbits/s speed=0.0132x elapsed=0:03:27.73    \nframe=   84 fps=0.4 q=47.1 size=    1280KiB time=00:00:02.73 bitrate=3836.4kbits/s speed=0.0131x elapsed=0:03:28.25    \nframe=   85 fps=0.4 q=42.7 size=    1280KiB time=00:00:02.76 bitrate=3790.2kbits/s speed=0.0133x elapsed=0:03:28.77    \nframe=   85 fps=0.4 q=42.7 size=    1280KiB time=00:00:02.76 bitrate=3790.2kbits/s speed=0.0132x elapsed=0:03:29.30    \nframe=   85 fps=0.4 q=42.7 size=    1280KiB time=00:00:02.76 bitrate=3790.2kbits/s speed=0.0132x elapsed=0:03:29.82    \nframe=   85 fps=0.4 q=42.7 size=    1280KiB time=00:00:02.76 bitrate=3790.2kbits/s speed=0.0132x elapsed=0:03:30.35    \nframe=   85 fps=0.4 q=42.7 size=    1280KiB time=00:00:02.76 bitrate=3790.2kbits/s speed=0.0131x elapsed=0:03:30.87    \nframe=   86 fps=0.4 q=43.8 size=    1280KiB time=00:00:02.80 bitrate=3745.0kbits/s speed=0.0132x elapsed=0:03:31.39    \nframe=   86 fps=0.4 q=43.8 size=    1280KiB time=00:00:02.80 bitrate=3745.0kbits/s speed=0.0132x elapsed=0:03:31.92    \nframe=   86 fps=0.4 q=43.8 size=    1280KiB time=00:00:02.80 bitrate=3745.0kbits/s speed=0.0132x elapsed=0:03:32.43    \nframe=   87 fps=0.4 q=47.2 size=    1280KiB time=00:00:02.83 bitrate=3701.0kbits/s speed=0.0133x elapsed=0:03:32.98    \nframe=   88 fps=0.4 q=47.2 size=    1280KiB time=00:00:02.86 bitrate=3657.9kbits/s speed=0.0134x elapsed=0:03:33.49    \nframe=   89 fps=0.4 q=47.2 size=    1280KiB time=00:00:02.90 bitrate=3615.9kbits/s speed=0.0136x elapsed=0:03:34.02    \nframe=   89 fps=0.4 q=47.2 size=    1280KiB time=00:00:02.90 bitrate=3615.9kbits/s speed=0.0135x elapsed=0:03:34.52    \nframe=   89 fps=0.4 q=47.2 size=    1280KiB time=00:00:02.90 bitrate=3615.9kbits/s speed=0.0135x elapsed=0:03:35.04    \nframe=   90 fps=0.4 q=43.0 size=    1280KiB time=00:00:02.93 bitrate=3574.8kbits/s speed=0.0136x elapsed=0:03:35.56    \nframe=   90 fps=0.4 q=43.0 size=    1280KiB time=00:00:02.93 bitrate=3574.8kbits/s speed=0.0136x elapsed=0:03:36.07    \nframe=   91 fps=0.4 q=45.2 size=    1280KiB time=00:00:02.96 bitrate=3534.6kbits/s speed=0.0137x elapsed=0:03:36.59    \nframe=   91 fps=0.4 q=45.2 size=    1280KiB time=00:00:02.96 bitrate=3534.6kbits/s speed=0.0137x elapsed=0:03:37.10    \nframe=   93 fps=0.4 q=47.4 size=    1280KiB time=00:00:03.03 bitrate=3457.0kbits/s speed=0.0139x elapsed=0:03:37.61    \nframe=   93 fps=0.4 q=47.4 size=    1280KiB time=00:00:03.03 bitrate=3457.0kbits/s speed=0.0139x elapsed=0:03:38.13    \nframe=   94 fps=0.4 q=42.9 size=    1280KiB time=00:00:03.06 bitrate=3419.4kbits/s speed=0.014x elapsed=0:03:38.65    \nframe=   94 fps=0.4 q=42.9 size=    1280KiB time=00:00:03.06 bitrate=3419.4kbits/s speed=0.014x elapsed=0:03:39.17    \nframe=   95 fps=0.4 q=45.1 size=    1280KiB time=00:00:03.10 bitrate=3382.6kbits/s speed=0.0141x elapsed=0:03:39.68    \nframe=   95 fps=0.4 q=45.1 size=    1280KiB time=00:00:03.10 bitrate=3382.6kbits/s speed=0.0141x elapsed=0:03:40.20    \nframe=   97 fps=0.4 q=47.0 size=    1536KiB time=00:00:03.16 bitrate=3973.7kbits/s speed=0.0143x elapsed=0:03:40.71    \nframe=   97 fps=0.4 q=47.0 size=    1536KiB time=00:00:03.16 bitrate=3973.7kbits/s speed=0.0143x elapsed=0:03:41.23    \nframe=   97 fps=0.4 q=47.0 size=    1536KiB time=00:00:03.16 bitrate=3973.7kbits/s speed=0.0143x elapsed=0:03:41.74    \nframe=   98 fps=0.4 q=42.7 size=    1536KiB time=00:00:03.20 bitrate=3932.3kbits/s speed=0.0144x elapsed=0:03:42.25    \nframe=   98 fps=0.4 q=42.7 size=    1536KiB time=00:00:03.20 bitrate=3932.3kbits/s speed=0.0144x elapsed=0:03:42.78    \nframe=   99 fps=0.4 q=45.0 size=    1536KiB time=00:00:03.23 bitrate=3891.7kbits/s speed=0.0145x elapsed=0:03:43.30    \nframe=  101 fps=0.5 q=47.0 size=    1536KiB time=00:00:03.30 bitrate=3813.1kbits/s speed=0.0147x elapsed=0:03:43.82    \nframe=  101 fps=0.5 q=47.0 size=    1536KiB time=00:00:03.30 bitrate=3813.1kbits/s speed=0.0147x elapsed=0:03:44.34    \nframe=  101 fps=0.4 q=47.0 size=    1536KiB time=00:00:03.30 bitrate=3813.1kbits/s speed=0.0147x elapsed=0:03:44.86    \nframe=  102 fps=0.5 q=42.5 size=    1536KiB time=00:00:03.33 bitrate=3775.0kbits/s speed=0.0148x elapsed=0:03:45.37    \nframe=  102 fps=0.5 q=42.5 size=    1536KiB time=00:00:03.33 bitrate=3775.0kbits/s speed=0.0148x elapsed=0:03:45.88    \nframe=  103 fps=0.5 q=44.9 size=    1536KiB time=00:00:03.36 bitrate=3737.6kbits/s speed=0.0149x elapsed=0:03:46.39    \nframe=  103 fps=0.5 q=44.9 size=    1536KiB time=00:00:03.36 bitrate=3737.6kbits/s speed=0.0148x elapsed=0:03:46.92    \nframe=  105 fps=0.5 q=46.9 size=    1536KiB time=00:00:03.43 bitrate=3665.0kbits/s speed=0.0151x elapsed=0:03:47.44    \nframe=  105 fps=0.5 q=46.9 size=    1536KiB time=00:00:03.43 bitrate=3665.0kbits/s speed=0.0151x elapsed=0:03:47.95    \nframe=  105 fps=0.5 q=46.9 size=    1536KiB time=00:00:03.43 bitrate=3665.0kbits/s speed=0.015x elapsed=0:03:48.46    \nframe=  106 fps=0.5 q=42.2 size=    1536KiB time=00:00:03.46 bitrate=3629.8kbits/s speed=0.0151x elapsed=0:03:48.97    \nframe=  106 fps=0.5 q=42.2 size=    1536KiB time=00:00:03.46 bitrate=3629.8kbits/s speed=0.0151x elapsed=0:03:49.50    \nframe=  107 fps=0.5 q=45.0 size=    1536KiB time=00:00:03.50 bitrate=3595.2kbits/s speed=0.0152x elapsed=0:03:50.01    \nframe=  107 fps=0.5 q=45.0 size=    1536KiB time=00:00:03.50 bitrate=3595.2kbits/s speed=0.0152x elapsed=0:03:50.53    \nframe=  108 fps=0.5 q=47.0 size=    1536KiB time=00:00:03.53 bitrate=3561.3kbits/s speed=0.0153x elapsed=0:03:51.04    \nframe=  109 fps=0.5 q=46.9 size=    1536KiB time=00:00:03.56 bitrate=3528.0kbits/s speed=0.0154x elapsed=0:03:51.56    \nframe=  109 fps=0.5 q=46.9 size=    1536KiB time=00:00:03.56 bitrate=3528.0kbits/s speed=0.0154x elapsed=0:03:52.07    \nframe=  110 fps=0.5 q=42.6 size=    1536KiB time=00:00:03.60 bitrate=3495.4kbits/s speed=0.0155x elapsed=0:03:52.58    \nframe=  110 fps=0.5 q=42.6 size=    1536KiB time=00:00:03.60 bitrate=3495.4kbits/s speed=0.0154x elapsed=0:03:53.10    \nframe=  111 fps=0.5 q=44.6 size=    1536KiB time=00:00:03.63 bitrate=3463.3kbits/s speed=0.0156x elapsed=0:03:53.62    \nframe=  111 fps=0.5 q=44.6 size=    1536KiB time=00:00:03.63 bitrate=3463.3kbits/s speed=0.0155x elapsed=0:03:54.13    \nframe=  112 fps=0.5 q=47.2 size=    1792KiB time=00:00:03.66 bitrate=4003.7kbits/s speed=0.0156x elapsed=0:03:54.65    \nframe=  113 fps=0.5 q=46.8 size=    1792KiB time=00:00:03.70 bitrate=3967.7kbits/s speed=0.0157x elapsed=0:03:55.16    \nframe=  113 fps=0.5 q=46.8 size=    1792KiB time=00:00:03.70 bitrate=3967.7kbits/s speed=0.0157x elapsed=0:03:55.68    \nframe=  114 fps=0.5 q=42.5 size=    1792KiB time=00:00:03.73 bitrate=3932.3kbits/s speed=0.0158x elapsed=0:03:56.20    \nframe=  115 fps=0.5 q=44.7 size=    1792KiB time=00:00:03.76 bitrate=3897.5kbits/s speed=0.0159x elapsed=0:03:56.71    \nframe=  115 fps=0.5 q=44.7 size=    1792KiB time=00:00:03.76 bitrate=3897.5kbits/s speed=0.0159x elapsed=0:03:57.23    \nframe=  115 fps=0.5 q=44.7 size=    1792KiB time=00:00:03.76 bitrate=3897.5kbits/s speed=0.0158x elapsed=0:03:57.74    \nframe=  117 fps=0.5 q=47.2 size=    1792KiB time=00:00:03.83 bitrate=3829.7kbits/s speed=0.0161x elapsed=0:03:58.27    \nframe=  117 fps=0.5 q=47.2 size=    1792KiB time=00:00:03.83 bitrate=3829.7kbits/s speed=0.0161x elapsed=0:03:58.77    \nframe=  118 fps=0.5 q=42.8 size=    1792KiB time=00:00:03.86 bitrate=3796.7kbits/s speed=0.0162x elapsed=0:03:59.29    \nframe=  118 fps=0.5 q=42.8 size=    1792KiB time=00:00:03.86 bitrate=3796.7kbits/s speed=0.0161x elapsed=0:03:59.80    \nframe=  119 fps=0.5 q=44.3 size=    1792KiB time=00:00:03.90 bitrate=3764.2kbits/s speed=0.0162x elapsed=0:04:00.32    \nframe=  119 fps=0.5 q=44.3 size=    1792KiB time=00:00:03.90 bitrate=3764.2kbits/s speed=0.0162x elapsed=0:04:00.84    \nframe=  119 fps=0.5 q=44.3 size=    1792KiB time=00:00:03.90 bitrate=3764.2kbits/s speed=0.0162x elapsed=0:04:01.36    \nframe=  119 fps=0.5 q=44.3 size=    1792KiB time=00:00:03.90 bitrate=3764.2kbits/s speed=0.0161x elapsed=0:04:01.88    \nframe=  120 fps=0.5 q=46.9 size=    1792KiB time=00:00:03.93 bitrate=3732.3kbits/s speed=0.0162x elapsed=0:04:02.39    \nframe=  120 fps=0.5 q=46.9 size=    1792KiB time=00:00:03.93 bitrate=3732.3kbits/s speed=0.0162x elapsed=0:04:02.91    \nframe=  121 fps=0.5 q=46.7 size=    1792KiB time=00:00:03.96 bitrate=3700.9kbits/s speed=0.0163x elapsed=0:04:03.41    \nframe=  121 fps=0.5 q=46.7 size=    1792KiB time=00:00:03.96 bitrate=3700.9kbits/s speed=0.0163x elapsed=0:04:03.93    \nframe=  121 fps=0.5 q=46.7 size=    1792KiB time=00:00:03.96 bitrate=3700.9kbits/s speed=0.0162x elapsed=0:04:04.48    \nframe=  121 fps=0.5 q=46.7 size=    1792KiB time=00:00:03.96 bitrate=3700.9kbits/s speed=0.0162x elapsed=0:04:05.00    \nframe=  121 fps=0.5 q=46.7 size=    1792KiB time=00:00:03.96 bitrate=3700.9kbits/s speed=0.0162x elapsed=0:04:05.52    \nframe=  121 fps=0.5 q=46.7 size=    1792KiB time=00:00:03.96 bitrate=3700.9kbits/s speed=0.0161x elapsed=0:04:06.05    \nframe=  121 fps=0.5 q=46.7 size=    1792KiB time=00:00:03.96 bitrate=3700.9kbits/s speed=0.0161x elapsed=0:04:06.57    \nframe=  121 fps=0.5 q=46.7 size=    1792KiB time=00:00:03.96 bitrate=3700.9kbits/s speed=0.0161x elapsed=0:04:07.10    \nframe=  122 fps=0.5 q=42.5 size=    1792KiB time=00:00:04.00 bitrate=3670.1kbits/s speed=0.0162x elapsed=0:04:07.64    \nframe=  122 fps=0.5 q=42.5 size=    1792KiB time=00:00:04.00 bitrate=3670.1kbits/s speed=0.0161x elapsed=0:04:08.18    \nframe=  122 fps=0.5 q=42.5 size=    1792KiB time=00:00:04.00 bitrate=3670.1kbits/s speed=0.0161x elapsed=0:04:08.71    \nframe=  122 fps=0.5 q=42.5 size=    1792KiB time=00:00:04.00 bitrate=3670.1kbits/s speed=0.016x elapsed=0:04:09.23    \nframe=  122 fps=0.5 q=42.5 size=    1792KiB time=00:00:04.00 bitrate=3670.1kbits/s speed=0.016x elapsed=0:04:09.77    \nframe=  122 fps=0.5 q=42.5 size=    1792KiB time=00:00:04.00 bitrate=3670.1kbits/s speed=0.016x elapsed=0:04:10.31    \nframe=  122 fps=0.5 q=42.5 size=    1792KiB time=00:00:04.00 bitrate=3670.1kbits/s speed=0.0159x elapsed=0:04:10.84    \nframe=  122 fps=0.5 q=42.5 size=    1792KiB time=00:00:04.00 bitrate=3670.1kbits/s speed=0.0159x elapsed=0:04:11.37    \nframe=  123 fps=0.5 q=44.8 size=    1792KiB time=00:00:04.03 bitrate=3639.8kbits/s speed=0.016x elapsed=0:04:11.90    \nframe=  124 fps=0.5 q=47.0 size=    1792KiB time=00:00:04.06 bitrate=3609.9kbits/s speed=0.0161x elapsed=0:04:12.43    \nframe=  124 fps=0.5 q=47.0 size=    1792KiB time=00:00:04.06 bitrate=3609.9kbits/s speed=0.0161x elapsed=0:04:12.97    \nframe=  124 fps=0.5 q=47.0 size=    1792KiB time=00:00:04.06 bitrate=3609.9kbits/s speed=0.016x elapsed=0:04:13.50    \nframe=  125 fps=0.5 q=47.0 size=    1792KiB time=00:00:04.10 bitrate=3580.6kbits/s speed=0.0161x elapsed=0:04:14.03    \nframe=  125 fps=0.5 q=47.0 size=    1792KiB time=00:00:04.10 bitrate=3580.6kbits/s speed=0.0161x elapsed=0:04:14.56    \nframe=  125 fps=0.5 q=47.0 size=    1792KiB time=00:00:04.10 bitrate=3580.6kbits/s speed=0.0161x elapsed=0:04:15.09    \nframe=  125 fps=0.5 q=47.0 size=    1792KiB time=00:00:04.10 bitrate=3580.6kbits/s speed=0.016x elapsed=0:04:15.60    \nframe=  125 fps=0.5 q=47.0 size=    1792KiB time=00:00:04.10 bitrate=3580.6kbits/s speed=0.016x elapsed=0:04:16.12    \nframe=  126 fps=0.5 q=42.7 size=    1792KiB time=00:00:04.13 bitrate=3551.7kbits/s speed=0.0161x elapsed=0:04:16.63    \nframe=  126 fps=0.5 q=42.7 size=    1792KiB time=00:00:04.13 bitrate=3551.7kbits/s speed=0.0161x elapsed=0:04:17.14    \nframe=  126 fps=0.5 q=42.7 size=    1792KiB time=00:00:04.13 bitrate=3551.7kbits/s speed=0.016x elapsed=0:04:17.66    \nframe=  126 fps=0.5 q=42.7 size=    1792KiB time=00:00:04.13 bitrate=3551.7kbits/s speed=0.016x elapsed=0:04:18.19    \nframe=  127 fps=0.5 q=44.7 size=    1792KiB time=00:00:04.16 bitrate=3523.3kbits/s speed=0.0161x elapsed=0:04:18.71    \nframe=  127 fps=0.5 q=44.7 size=    1792KiB time=00:00:04.16 bitrate=3523.3kbits/s speed=0.0161x elapsed=0:04:19.23    \nframe=  127 fps=0.5 q=44.7 size=    1792KiB time=00:00:04.16 bitrate=3523.3kbits/s speed=0.016x elapsed=0:04:19.74    \nframe=  127 fps=0.5 q=44.7 size=    1792KiB time=00:00:04.16 bitrate=3523.3kbits/s speed=0.016x elapsed=0:04:20.26    \nframe=  127 fps=0.5 q=44.7 size=    1792KiB time=00:00:04.16 bitrate=3523.3kbits/s speed=0.016x elapsed=0:04:20.80    \nframe=  129 fps=0.5 q=46.8 size=    2048KiB time=00:00:04.23 bitrate=3963.2kbits/s speed=0.0162x elapsed=0:04:21.31    \nframe=  129 fps=0.5 q=46.8 size=    2048KiB time=00:00:04.23 bitrate=3963.2kbits/s speed=0.0162x elapsed=0:04:21.83    \nframe=  129 fps=0.5 q=46.8 size=    2048KiB time=00:00:04.23 bitrate=3963.2kbits/s speed=0.0161x elapsed=0:04:22.37    \nframe=  129 fps=0.5 q=46.8 size=    2048KiB time=00:00:04.23 bitrate=3963.2kbits/s speed=0.0161x elapsed=0:04:22.90    \nframe=  129 fps=0.5 q=46.8 size=    2048KiB time=00:00:04.23 bitrate=3963.2kbits/s speed=0.0161x elapsed=0:04:23.41    \nframe=  129 fps=0.5 q=46.8 size=    2048KiB time=00:00:04.23 bitrate=3963.2kbits/s speed=0.016x elapsed=0:04:23.94    \nframe=  130 fps=0.5 q=42.3 size=    2048KiB time=00:00:04.26 bitrate=3932.2kbits/s speed=0.0161x elapsed=0:04:24.46    \nframe=  131 fps=0.5 q=44.2 size=    2048KiB time=00:00:04.30 bitrate=3901.8kbits/s speed=0.0162x elapsed=0:04:24.99    \nframe=  131 fps=0.5 q=44.2 size=    2048KiB time=00:00:04.30 bitrate=3901.8kbits/s speed=0.0162x elapsed=0:04:25.55    \nframe=  131 fps=0.5 q=44.2 size=    2048KiB time=00:00:04.30 bitrate=3901.8kbits/s speed=0.0162x elapsed=0:04:26.14    \nframe=  131 fps=0.5 q=44.2 size=    2048KiB time=00:00:04.30 bitrate=3901.8kbits/s speed=0.0161x elapsed=0:04:26.69    \nframe=  131 fps=0.5 q=44.2 size=    2048KiB time=00:00:04.30 bitrate=3901.8kbits/s speed=0.0161x elapsed=0:04:27.21    \nframe=  131 fps=0.5 q=44.2 size=    2048KiB time=00:00:04.30 bitrate=3901.8kbits/s speed=0.0161x elapsed=0:04:27.74    \nframe=  131 fps=0.5 q=44.2 size=    2048KiB time=00:00:04.30 bitrate=3901.8kbits/s speed=0.016x elapsed=0:04:28.26    \nframe=  132 fps=0.5 q=46.6 size=    2048KiB time=00:00:04.33 bitrate=3871.7kbits/s speed=0.0161x elapsed=0:04:28.78    \nframe=  133 fps=0.5 q=46.8 size=    2048KiB time=00:00:04.36 bitrate=3842.2kbits/s speed=0.0162x elapsed=0:04:29.29    \nframe=  134 fps=0.5 q=42.4 size=    2048KiB time=00:00:04.40 bitrate=3813.1kbits/s speed=0.0163x elapsed=0:04:29.80    \nframe=  134 fps=0.5 q=42.4 size=    2048KiB time=00:00:04.40 bitrate=3813.1kbits/s speed=0.0163x elapsed=0:04:30.32    \nframe=  134 fps=0.5 q=42.4 size=    2048KiB time=00:00:04.40 bitrate=3813.1kbits/s speed=0.0162x elapsed=0:04:30.87    \nframe=  134 fps=0.5 q=42.4 size=    2048KiB time=00:00:04.40 bitrate=3813.1kbits/s speed=0.0162x elapsed=0:04:31.38    \nframe=  134 fps=0.5 q=42.4 size=    2048KiB time=00:00:04.40 bitrate=3813.1kbits/s speed=0.0162x elapsed=0:04:31.90    \nframe=  134 fps=0.5 q=42.4 size=    2048KiB time=00:00:04.40 bitrate=3813.1kbits/s speed=0.0162x elapsed=0:04:32.43    \nframe=  134 fps=0.5 q=42.4 size=    2048KiB time=00:00:04.40 bitrate=3813.1kbits/s speed=0.0161x elapsed=0:04:32.95    \nframe=  135 fps=0.5 q=44.4 size=    2048KiB time=00:00:04.43 bitrate=3784.4kbits/s speed=0.0162x elapsed=0:04:33.47    \nframe=  135 fps=0.5 q=44.4 size=    2048KiB time=00:00:04.43 bitrate=3784.4kbits/s speed=0.0162x elapsed=0:04:33.99    \nframe=  135 fps=0.5 q=44.4 size=    2048KiB time=00:00:04.43 bitrate=3784.4kbits/s speed=0.0162x elapsed=0:04:34.50    \nframe=  135 fps=0.5 q=44.4 size=    2048KiB time=00:00:04.43 bitrate=3784.4kbits/s speed=0.0161x elapsed=0:04:35.04    \nframe=  135 fps=0.5 q=44.4 size=    2048KiB time=00:00:04.43 bitrate=3784.4kbits/s speed=0.0161x elapsed=0:04:35.58    \nframe=  135 fps=0.5 q=44.4 size=    2048KiB time=00:00:04.43 bitrate=3784.4kbits/s speed=0.0161x elapsed=0:04:36.10    \nframe=  136 fps=0.5 q=46.5 size=    2048KiB time=00:00:04.46 bitrate=3756.2kbits/s speed=0.0161x elapsed=0:04:36.62    \nframe=  136 fps=0.5 q=46.5 size=    2048KiB time=00:00:04.46 bitrate=3756.2kbits/s speed=0.0161x elapsed=0:04:37.14    \nframe=  137 fps=0.5 q=46.8 size=    2048KiB time=00:00:04.50 bitrate=3728.3kbits/s speed=0.0162x elapsed=0:04:37.69    \nframe=  137 fps=0.5 q=46.8 size=    2048KiB time=00:00:04.50 bitrate=3728.3kbits/s speed=0.0162x elapsed=0:04:38.29    \nframe=  137 fps=0.5 q=46.8 size=    2048KiB time=00:00:04.50 bitrate=3728.3kbits/s speed=0.0161x elapsed=0:04:38.88    \nframe=  137 fps=0.5 q=46.8 size=    2048KiB time=00:00:04.50 bitrate=3728.3kbits/s speed=0.0161x elapsed=0:04:39.46    \nframe=  137 fps=0.5 q=46.8 size=    2048KiB time=00:00:04.50 bitrate=3728.3kbits/s speed=0.0161x elapsed=0:04:40.02    \nframe=  137 fps=0.5 q=46.8 size=    2048KiB time=00:00:04.50 bitrate=3728.3kbits/s speed=0.016x elapsed=0:04:40.57    \nframe=  137 fps=0.5 q=46.8 size=    2048KiB time=00:00:04.50 bitrate=3728.3kbits/s speed=0.016x elapsed=0:04:41.10    \nframe=  138 fps=0.5 q=42.4 size=    2048KiB time=00:00:04.53 bitrate=3700.9kbits/s speed=0.0161x elapsed=0:04:41.63    \nframe=  138 fps=0.5 q=42.4 size=    2048KiB time=00:00:04.53 bitrate=3700.9kbits/s speed=0.0161x elapsed=0:04:42.18    \nframe=  138 fps=0.5 q=42.4 size=    2048KiB time=00:00:04.53 bitrate=3700.9kbits/s speed=0.016x elapsed=0:04:42.69    \nframe=  138 fps=0.5 q=42.4 size=    2048KiB time=00:00:04.53 bitrate=3700.9kbits/s speed=0.016x elapsed=0:04:43.21    \nframe=  138 fps=0.5 q=42.4 size=    2048KiB time=00:00:04.53 bitrate=3700.9kbits/s speed=0.016x elapsed=0:04:43.73    \nframe=  138 fps=0.5 q=42.4 size=    2048KiB time=00:00:04.53 bitrate=3700.9kbits/s speed=0.0159x elapsed=0:04:44.26    \nframe=  138 fps=0.5 q=42.4 size=    2048KiB time=00:00:04.53 bitrate=3700.9kbits/s speed=0.0159x elapsed=0:04:44.84    \nframe=  139 fps=0.5 q=44.5 size=    2048KiB time=00:00:04.56 bitrate=3673.9kbits/s speed=0.016x elapsed=0:04:45.36    \nframe=  139 fps=0.5 q=44.5 size=    2048KiB time=00:00:04.56 bitrate=3673.9kbits/s speed=0.016x elapsed=0:04:45.86    \nframe=  140 fps=0.5 q=46.8 size=    2048KiB time=00:00:04.60 bitrate=3647.3kbits/s speed=0.0161x elapsed=0:04:46.39    \nframe=  140 fps=0.5 q=46.8 size=    2048KiB time=00:00:04.60 bitrate=3647.3kbits/s speed=0.016x elapsed=0:04:46.92    \nframe=  141 fps=0.5 q=46.7 size=    2048KiB time=00:00:04.63 bitrate=3621.1kbits/s speed=0.0161x elapsed=0:04:47.47    \nframe=  141 fps=0.5 q=46.7 size=    2048KiB time=00:00:04.63 bitrate=3621.1kbits/s speed=0.0161x elapsed=0:04:47.98    \nframe=  142 fps=0.5 q=42.3 size=    2048KiB time=00:00:04.66 bitrate=3595.2kbits/s speed=0.0162x elapsed=0:04:48.49    \nframe=  142 fps=0.5 q=42.3 size=    2048KiB time=00:00:04.66 bitrate=3595.2kbits/s speed=0.0161x elapsed=0:04:49.01    \nframe=  142 fps=0.5 q=42.3 size=    2048KiB time=00:00:04.66 bitrate=3595.2kbits/s speed=0.0161x elapsed=0:04:49.52    \nframe=  143 fps=0.5 q=45.2 size=    2048KiB time=00:00:04.70 bitrate=3569.7kbits/s speed=0.0162x elapsed=0:04:50.04    \nframe=  143 fps=0.5 q=45.2 size=    2048KiB time=00:00:04.70 bitrate=3569.7kbits/s speed=0.0162x elapsed=0:04:50.56    \nframe=  144 fps=0.5 q=46.7 size=    2304KiB time=00:00:04.73 bitrate=3987.6kbits/s speed=0.0163x elapsed=0:04:51.07    \nframe=  144 fps=0.5 q=46.7 size=    2304KiB time=00:00:04.73 bitrate=3987.6kbits/s speed=0.0162x elapsed=0:04:51.62    \nframe=  145 fps=0.5 q=46.4 size=    2304KiB time=00:00:04.76 bitrate=3959.7kbits/s speed=0.0163x elapsed=0:04:52.20    \nframe=  145 fps=0.5 q=46.4 size=    2304KiB time=00:00:04.76 bitrate=3959.7kbits/s speed=0.0163x elapsed=0:04:52.73    \nframe=  145 fps=0.5 q=46.4 size=    2304KiB time=00:00:04.76 bitrate=3959.7kbits/s speed=0.0163x elapsed=0:04:53.24    \nframe=  145 fps=0.5 q=46.4 size=    2304KiB time=00:00:04.76 bitrate=3959.7kbits/s speed=0.0162x elapsed=0:04:53.76    \nframe=  145 fps=0.5 q=46.4 size=    2304KiB time=00:00:04.76 bitrate=3959.7kbits/s speed=0.0162x elapsed=0:04:54.29    \nframe=  146 fps=0.5 q=46.6 size=    2304KiB time=00:00:04.80 bitrate=3932.2kbits/s speed=0.0163x elapsed=0:04:54.81    \nframe=  146 fps=0.5 q=46.6 size=    2304KiB time=00:00:04.80 bitrate=3932.2kbits/s speed=0.0163x elapsed=0:04:55.32    \nframe=  147 fps=0.5 q=43.8 size=    2304KiB time=00:00:04.83 bitrate=3905.1kbits/s speed=0.0163x elapsed=0:04:55.84    \nframe=  147 fps=0.5 q=43.8 size=    2304KiB time=00:00:04.83 bitrate=3905.1kbits/s speed=0.0163x elapsed=0:04:56.37    \nframe=  147 fps=0.5 q=43.8 size=    2304KiB time=00:00:04.83 bitrate=3905.1kbits/s speed=0.0163x elapsed=0:04:56.90    \nframe=  147 fps=0.5 q=43.8 size=    2304KiB time=00:00:04.83 bitrate=3905.1kbits/s speed=0.0163x elapsed=0:04:57.43    \nframe=  147 fps=0.5 q=43.8 size=    2304KiB time=00:00:04.83 bitrate=3905.1kbits/s speed=0.0162x elapsed=0:04:57.96    \nframe=  147 fps=0.5 q=43.8 size=    2304KiB time=00:00:04.83 bitrate=3905.1kbits/s speed=0.0162x elapsed=0:04:58.51    \nframe=  147 fps=0.5 q=43.8 size=    2304KiB time=00:00:04.83 bitrate=3905.1kbits/s speed=0.0162x elapsed=0:04:59.04    \nframe=  147 fps=0.5 q=43.8 size=    2304KiB time=00:00:04.83 bitrate=3905.1kbits/s speed=0.0161x elapsed=0:04:59.55    \nframe=  148 fps=0.5 q=44.2 size=    2304KiB time=00:00:04.86 bitrate=3878.4kbits/s speed=0.0162x elapsed=0:05:00.07    \nframe=  148 fps=0.5 q=44.2 size=    2304KiB time=00:00:04.86 bitrate=3878.4kbits/s speed=0.0162x elapsed=0:05:00.60    \nframe=  148 fps=0.5 q=44.2 size=    2304KiB time=00:00:04.86 bitrate=3878.4kbits/s speed=0.0162x elapsed=0:05:01.12    \n[mp4 @ 000002368e429740] Starting second pass: moving the moov atom to the beginning of the file\n[out#0/mp4 @ 000002368e41ab00] video:2402KiB audio:0KiB subtitle:0KiB other streams:0KiB global headers:2KiB muxing overhead: 0.215957%\nframe=  150 fps=0.5 q=46.8 Lsize=    2407KiB time=00:00:04.93 bitrate=3997.4kbits/s speed=0.0164x elapsed=0:05:01.28    \nx265 [info]: frame I:      1, Avg QP:39.25  kb/s: 14496.48\nx265 [info]: frame P:     36, Avg QP:42.84  kb/s: 7152.50 \nx265 [info]: frame B:    113, Avg QP:46.62  kb/s: 2816.02 \nx265 [info]: Weighted P-Frames: Y:16.7% UV:11.1%\n\nencoded 150 frames in 299.46s (0.50 fps), 3934.64 kb/s, Avg QP:45.67\n",
  "seconds": 301.88205432891846,
  "probe_out": {}
}